<?xml version="1.0" encoding="UTF-8"?>
<svg width="48px" height="48px" viewBox="0 0 48 48" version="1.1" xmlns="http://www.w3.org/2000/svg">
    <title>Icon-Resource/Artificial-Intelligence/Res_Amazon-Bedrock-AgentCore_Observability_48</title>
    <g id="Icon-Resource/Artificial-Intelligence/Res_Amazon-Bedrock-AgentCore_Observability_48" stroke="none" stroke-width="1" fill-rule="evenodd">
        <path d="M15.258,45.126C15.180,45.100 14.952,44.977 14.750,44.852C14.548,44.727 14.373,44.625 14.361,44.625C14.349,44.625 14.229,44.555 14.095,44.469C13.961,44.383 13.756,44.259 13.640,44.193C13.524,44.127 12.596,43.583 11.578,42.984C10.560,42.385 9.189,41.579 8.531,41.192C7.874,40.806 7.262,40.447 7.172,40.396C6.299,39.897 5.663,39.496 5.582,39.393C5.485,39.269 5.484,39.251 5.484,35.624L5.484,31.979L5.262,31.837C5.139,31.760 4.965,31.655 4.875,31.604C4.743,31.530 3.980,31.085 3.656,30.893C2.958,30.480 0.545,29.057 0.403,28.975C0.298,28.913 0.163,28.812 0.105,28.750L0.000,28.636L0.001,23.916L0.003,19.195L0.107,19.078C0.193,18.981 1.047,18.451 1.987,17.913C2.093,17.852 2.327,17.712 2.508,17.602C2.964,17.324 4.442,16.451 4.641,16.343C4.731,16.294 4.861,16.214 4.929,16.166C4.998,16.118 5.071,16.077 5.093,16.076C5.115,16.076 5.190,16.028 5.261,15.970L5.388,15.865L5.401,12.199L5.414,8.533L5.555,8.395C5.632,8.319 6.254,7.939 6.938,7.551C7.621,7.162 8.211,6.824 8.250,6.799C8.317,6.755 8.512,6.643 9.023,6.352C9.152,6.279 9.412,6.127 9.602,6.016C9.791,5.904 9.954,5.813 9.964,5.812C9.974,5.812 10.121,5.728 10.289,5.625C10.458,5.522 10.603,5.437 10.613,5.437C10.622,5.437 10.912,5.273 11.257,5.071C11.601,4.870 11.914,4.691 11.953,4.673C11.992,4.655 12.089,4.600 12.170,4.551C12.457,4.376 13.550,3.750 13.568,3.750C13.578,3.750 13.756,3.645 13.964,3.516C14.172,3.387 14.351,3.281 14.362,3.281C14.374,3.281 14.543,3.186 14.739,3.071C15.131,2.839 15.373,2.727 15.445,2.746C15.517,2.764 18.396,3.701 20.109,4.264C20.947,4.539 21.852,4.834 22.120,4.920C22.413,5.013 22.661,5.124 22.742,5.198L22.878,5.320L22.879,23.884C22.880,34.094 22.867,42.483 22.850,42.526C22.797,42.665 22.612,42.745 21.411,43.151C20.760,43.370 19.731,43.717 19.125,43.921C18.519,44.125 17.591,44.438 17.062,44.616C15.324,45.202 15.412,45.177 15.258,45.126ZM16.610,43.807C17.181,43.614 18.524,43.159 19.594,42.796C20.664,42.432 21.608,42.117 21.693,42.095C22.010,42.014 21.984,42.573 21.984,35.692C21.984,32.255 21.969,29.433 21.949,29.421C21.930,29.409 21.817,29.456 21.698,29.524C21.539,29.616 19.253,30.963 18.422,31.456C18.035,31.685 17.325,32.098 17.156,32.192C17.040,32.257 16.893,32.346 16.828,32.391C16.764,32.435 16.616,32.524 16.500,32.589C16.297,32.703 15.732,33.035 13.266,34.490C12.634,34.863 12.043,35.210 11.953,35.261C11.863,35.313 11.614,35.458 11.401,35.584C11.187,35.709 10.984,35.812 10.948,35.812C10.870,35.812 10.487,35.165 10.517,35.085C10.529,35.055 11.210,34.634 12.031,34.151C12.852,33.669 13.555,33.255 13.594,33.232C13.928,33.034 14.690,32.590 14.859,32.494C14.975,32.429 15.179,32.305 15.314,32.219C15.448,32.133 15.569,32.062 15.583,32.062C15.596,32.062 15.719,31.992 15.855,31.906C15.990,31.819 16.196,31.695 16.312,31.630C16.429,31.565 17.283,31.064 18.211,30.517C19.139,29.969 19.993,29.468 20.109,29.402C20.225,29.337 20.373,29.247 20.438,29.203C20.502,29.159 20.681,29.054 20.836,28.969C21.134,28.807 21.381,28.659 21.741,28.430L21.961,28.289L21.961,17.065L21.961,5.841L21.234,5.597C20.835,5.463 19.791,5.118 18.914,4.832C18.038,4.545 16.938,4.185 16.470,4.030C16.002,3.876 15.565,3.750 15.498,3.750C15.431,3.750 15.163,3.877 14.902,4.031C14.642,4.186 14.421,4.312 14.411,4.312C14.400,4.312 14.260,4.393 14.098,4.492C13.937,4.590 13.689,4.735 13.547,4.813C13.077,5.071 12.024,5.681 11.965,5.729C11.920,5.766 11.904,6.592 11.895,9.463L11.883,13.148L11.465,13.162C11.162,13.172 11.036,13.159 11.009,13.115C10.987,13.082 10.970,11.541 10.969,9.691C10.969,7.842 10.952,6.328 10.931,6.328C10.911,6.328 10.697,6.444 10.457,6.586C10.217,6.728 10.015,6.844 10.007,6.844C10.000,6.844 9.607,7.067 9.134,7.341C8.660,7.614 8.157,7.902 8.016,7.981C7.874,8.060 7.603,8.216 7.414,8.328C7.225,8.440 7.062,8.531 7.052,8.531C7.043,8.531 6.876,8.628 6.681,8.746L6.328,8.960L6.329,12.390C6.329,14.277 6.345,15.844 6.364,15.872C6.391,15.913 7.987,16.864 8.831,17.342C9.166,17.532 9.318,17.619 10.172,18.116C10.649,18.393 11.126,18.670 11.233,18.731L11.427,18.842L11.585,18.734C11.850,18.554 13.759,17.219 14.602,16.625C15.040,16.316 15.446,16.021 15.504,15.969L15.609,15.874L15.609,13.431C15.609,11.593 15.623,10.974 15.666,10.931C15.748,10.849 16.426,10.856 16.495,10.940C16.535,10.987 16.546,11.716 16.536,13.664L16.523,16.323L16.326,16.499C16.217,16.595 15.669,16.993 15.107,17.383C14.085,18.094 12.605,19.135 12.149,19.465L11.906,19.640L11.907,21.199C11.907,22.056 11.923,22.779 11.942,22.806C11.977,22.854 12.177,22.993 12.352,23.089C12.403,23.118 13.015,23.485 13.711,23.905C14.407,24.324 15.071,24.721 15.188,24.787C15.531,24.980 15.563,25.004 15.562,25.069C15.562,25.175 15.181,25.781 15.115,25.781C15.080,25.781 14.850,25.655 14.602,25.500C14.354,25.345 14.145,25.219 14.139,25.219C14.132,25.219 13.527,24.859 12.794,24.420L11.461,23.621L11.297,23.709C11.207,23.758 10.390,24.244 9.481,24.790C8.573,25.335 7.808,25.781 7.781,25.781C7.732,25.781 7.313,25.156 7.313,25.083C7.313,25.043 7.469,24.925 7.664,24.817C7.716,24.788 8.327,24.421 9.023,24.002C9.720,23.582 10.384,23.185 10.500,23.120C10.616,23.055 10.769,22.962 10.840,22.912L10.969,22.822L10.969,21.235L10.969,19.647L10.418,19.322C9.635,18.860 8.214,18.030 7.992,17.906C7.889,17.848 7.499,17.622 7.125,17.403C6.751,17.184 6.313,16.932 6.151,16.842L5.856,16.680L5.166,17.089C4.787,17.314 4.139,17.699 3.727,17.944C3.314,18.190 2.934,18.414 2.883,18.442C2.831,18.471 2.420,18.715 1.969,18.985C1.518,19.254 1.106,19.497 1.055,19.524C0.962,19.572 0.961,19.626 0.950,23.908L0.940,28.242L2.819,29.344C3.852,29.950 4.785,30.495 4.892,30.555C4.999,30.616 5.213,30.744 5.367,30.840C5.522,30.936 5.689,31.030 5.738,31.048C5.804,31.072 6.093,30.913 6.863,30.429C7.432,30.071 8.505,29.396 9.246,28.930L10.593,28.082L10.828,28.429C10.957,28.621 11.063,28.796 11.063,28.818C11.063,28.841 10.850,28.995 10.590,29.160C10.330,29.326 9.918,29.588 9.675,29.742C9.431,29.897 9.062,30.129 8.853,30.258C8.405,30.534 7.674,30.997 7.147,31.337C6.940,31.471 6.704,31.615 6.621,31.658C6.539,31.700 6.450,31.776 6.423,31.826C6.391,31.885 6.375,33.095 6.375,35.384L6.375,38.853L6.715,39.063C7.008,39.245 10.461,41.278 10.922,41.541C11.012,41.592 11.155,41.676 11.239,41.728C11.324,41.779 11.421,41.811 11.455,41.798C11.490,41.785 12.827,40.949 14.427,39.942C16.027,38.934 17.368,38.109 17.406,38.109C17.481,38.109 17.859,38.672 17.859,38.783C17.859,38.845 17.698,38.956 16.622,39.633C16.376,39.787 15.976,40.041 15.732,40.195C15.489,40.350 15.087,40.603 14.839,40.758C14.342,41.069 13.834,41.389 13.195,41.794C12.963,41.941 12.685,42.116 12.576,42.183C12.344,42.326 12.328,42.391 12.504,42.481C12.664,42.563 12.783,42.632 13.680,43.166C14.076,43.401 14.405,43.594 14.412,43.594C14.420,43.594 14.633,43.720 14.887,43.875C15.140,44.030 15.398,44.156 15.460,44.156C15.522,44.156 16.039,43.999 16.610,43.807Z" fill="#000000"/>
        <path d="M23.002,36.105C22.992,36.086 22.986,35.891 22.988,35.672L22.992,35.273L23.483,35.260C23.803,35.251 23.986,35.227 24.009,35.190C24.029,35.158 24.046,33.240 24.046,30.927L24.047,26.721L23.941,26.696C23.883,26.683 23.646,26.667 23.414,26.660L22.992,26.648L22.992,26.227L22.992,25.805L23.827,25.792L24.661,25.779L24.799,25.917L24.938,26.055L24.938,30.961L24.938,35.867L24.800,36.004L24.663,36.141L23.842,36.141C23.391,36.141 23.013,36.125 23.002,36.105ZM26.005,36.004L25.852,35.867L25.852,28.500L25.852,21.133L26.005,20.996L26.158,20.859L28.612,20.859C30.980,20.859 31.070,20.863 31.183,20.952C31.247,21.002 31.324,21.102 31.354,21.174C31.394,21.271 31.404,23.186 31.395,28.586L31.383,35.867L31.230,36.004L31.077,36.141L28.617,36.141L26.158,36.141L26.005,36.004ZM32.941,36.090C32.711,35.956 32.719,36.164 32.719,30.234C32.719,24.188 32.706,24.478 32.982,24.373C33.052,24.347 34.099,24.328 35.538,24.328L37.976,24.328L38.113,24.465L38.250,24.602L38.250,30.234L38.250,35.867L38.113,36.004L37.976,36.141L35.500,36.139C33.905,36.138 32.994,36.121 32.941,36.090ZM39.606,36.004L39.469,35.867L39.469,27.633L39.469,19.399L39.606,19.262L39.743,19.125L42.210,19.125C43.813,19.125 44.710,19.142 44.768,19.173C45.012,19.304 45.000,18.854 45.000,27.633C45.000,36.483 45.016,35.961 44.743,36.085C44.653,36.126 43.973,36.141 42.182,36.141L39.743,36.141L39.606,36.004ZM30.445,28.500L30.445,21.773L28.617,21.773L26.789,21.773L26.777,28.453C26.770,32.127 26.775,35.159 26.787,35.192C26.805,35.238 27.199,35.248 28.628,35.239L30.445,35.227L30.445,28.500ZM37.336,30.234L37.336,25.242L35.511,25.230C34.082,25.220 33.678,25.230 33.648,25.277C33.605,25.345 33.595,35.064 33.638,35.176C33.664,35.243 33.859,35.250 35.501,35.239L37.336,35.227L37.336,30.234ZM44.053,35.194C44.142,35.105 44.134,20.141 44.045,20.068C43.999,20.030 43.471,20.018 42.182,20.027L40.383,20.039L40.371,27.586C40.364,31.737 40.369,35.159 40.381,35.191C40.413,35.275 43.970,35.277 44.053,35.194ZM22.978,22.434C22.977,22.001 22.987,21.935 23.072,21.859C23.226,21.721 23.416,21.413 23.476,21.205C23.605,20.758 23.489,20.298 23.146,19.889C22.982,19.695 22.980,19.688 22.979,19.245C22.978,18.999 22.997,18.785 23.021,18.770C23.046,18.755 23.140,18.786 23.231,18.840C23.322,18.894 23.432,18.937 23.475,18.936C23.555,18.934 23.902,18.628 25.439,17.202C25.898,16.775 26.354,16.354 26.453,16.265C26.656,16.082 26.657,16.050 26.484,15.586C26.401,15.364 26.380,15.210 26.382,14.859C26.386,14.200 26.580,13.732 27.033,13.285C27.637,12.691 28.438,12.499 29.324,12.735C29.591,12.806 30.104,13.145 30.304,13.383C30.510,13.628 30.697,13.963 30.793,14.262C30.864,14.482 30.869,15.141 30.803,15.422C30.775,15.538 30.752,15.666 30.751,15.707C30.750,15.749 30.966,15.929 31.254,16.125C31.531,16.314 32.190,16.763 32.719,17.122C33.247,17.482 33.713,17.805 33.754,17.841C33.857,17.932 33.930,17.923 34.097,17.797C34.525,17.476 34.952,17.335 35.504,17.335C35.970,17.335 36.252,17.405 36.594,17.605C36.702,17.667 36.811,17.719 36.835,17.719C36.879,17.719 37.168,17.467 38.533,16.242C39.635,15.253 40.036,14.893 40.547,14.438C42.770,12.456 43.241,12.029 43.231,12.005C43.224,11.989 42.602,11.966 41.848,11.953L40.477,11.930L40.477,11.508L40.477,11.086L42.589,11.074L44.702,11.062L44.816,11.183L44.930,11.304L44.953,13.366C44.974,15.227 44.969,15.435 44.901,15.497C44.813,15.576 44.219,15.582 44.121,15.504C44.077,15.468 44.062,15.116 44.062,14.030C44.063,12.820 44.052,12.605 43.996,12.618C43.959,12.626 43.543,12.981 43.070,13.406C42.598,13.831 42.148,14.234 42.070,14.302C41.993,14.370 41.486,14.823 40.943,15.310C40.400,15.797 39.404,16.689 38.728,17.293C38.053,17.897 37.500,18.408 37.500,18.429C37.500,18.450 37.554,18.627 37.620,18.823C38.122,20.320 37.059,21.811 35.491,21.807C34.701,21.805 34.051,21.462 33.628,20.825C33.244,20.247 33.179,19.765 33.356,18.818C33.381,18.686 33.363,18.662 33.133,18.511C32.905,18.361 31.426,17.352 30.639,16.809C30.461,16.686 30.289,16.576 30.256,16.563C30.223,16.550 30.062,16.624 29.899,16.727C29.142,17.204 28.320,17.254 27.553,16.869C27.457,16.821 27.344,16.781 27.301,16.781C27.258,16.781 26.924,17.061 26.559,17.402C26.193,17.744 25.500,18.389 25.017,18.836C24.535,19.283 24.141,19.675 24.141,19.706C24.141,19.737 24.160,19.783 24.184,19.807C24.208,19.832 24.273,19.989 24.330,20.156C24.592,20.933 24.365,21.839 23.757,22.448C23.559,22.645 23.138,22.921 23.033,22.921C22.996,22.922 22.979,22.767 22.978,22.434ZM36.084,20.763C36.389,20.611 36.550,20.451 36.716,20.138C36.797,19.987 36.819,19.865 36.820,19.570C36.820,19.241 36.803,19.164 36.681,18.944C36.405,18.445 35.961,18.204 35.390,18.245C35.020,18.272 34.744,18.408 34.500,18.687C34.242,18.980 34.160,19.224 34.179,19.636C34.193,19.945 34.217,20.032 34.352,20.255C34.513,20.520 34.832,20.780 35.090,20.857C35.165,20.880 35.355,20.900 35.512,20.902C35.742,20.905 35.854,20.878 36.084,20.763ZM29.084,16.137C29.415,16.020 29.770,15.659 29.873,15.334C30.083,14.674 29.847,14.045 29.258,13.699C29.063,13.584 28.993,13.570 28.617,13.570C28.243,13.570 28.171,13.585 27.979,13.697C27.713,13.854 27.485,14.108 27.363,14.384C27.228,14.688 27.263,15.233 27.437,15.529C27.593,15.795 27.890,16.053 28.143,16.143C28.410,16.237 28.807,16.235 29.084,16.137Z" fill="#7B27FF"/>
    </g>
</svg>
