<?xml version="1.0" encoding="UTF-8"?>
<svg width="48px" height="48px" viewBox="0 0 48 48" version="1.1" xmlns="http://www.w3.org/2000/svg">
    <title>Icon-Resource/Artificial-Intelligence/Res_Amazon-Bedrock-AgentCore_Code-Interpreter_48</title>
    <g id="Icon-Resource/Artificial-Intelligence/Res_Amazon-Bedrock-AgentCore_Code-Interpreter_48" stroke="none" stroke-width="1" fill-rule="evenodd">
        <path d="M13.274,42.326C13.173,42.285 12.690,42.004 11.180,41.109C10.845,40.910 10.444,40.674 10.289,40.584C10.134,40.494 9.712,40.245 9.352,40.032C8.991,39.818 8.627,39.604 8.543,39.556C8.247,39.387 8.079,39.289 7.430,38.905C7.069,38.693 6.710,38.482 6.633,38.438C6.500,38.361 5.431,37.729 5.050,37.501C4.952,37.443 4.852,37.357 4.827,37.310C4.799,37.257 4.781,36.024 4.781,34.059L4.781,30.894L4.523,30.728C4.380,30.637 4.256,30.562 4.247,30.562C4.238,30.562 3.882,30.354 3.456,30.099C3.029,29.843 2.568,29.573 2.430,29.497C2.292,29.421 1.916,29.201 1.594,29.007C1.271,28.814 0.850,28.565 0.656,28.454C0.463,28.344 0.236,28.189 0.152,28.110L0.000,27.966L0.000,23.856L0.000,19.746L0.129,19.617C0.200,19.546 0.616,19.276 1.055,19.018C1.811,18.572 1.935,18.500 2.318,18.283C2.407,18.233 2.724,18.043 3.023,17.861C3.322,17.680 3.573,17.531 3.582,17.531C3.590,17.531 3.837,17.388 4.130,17.212L4.664,16.893L4.688,13.706C4.713,10.196 4.698,10.362 5.002,10.208C5.129,10.144 6.891,9.137 7.031,9.048C7.070,9.024 7.270,8.908 7.477,8.791C7.683,8.673 7.946,8.522 8.062,8.454C8.179,8.386 8.368,8.277 8.484,8.213C8.600,8.148 8.991,7.922 9.352,7.712C9.712,7.501 10.124,7.265 10.266,7.187C10.407,7.109 11.082,6.722 11.766,6.327C13.109,5.549 13.317,5.438 13.426,5.437C13.465,5.437 14.062,5.624 14.753,5.852C15.770,6.188 18.477,7.074 19.453,7.391C19.762,7.491 19.851,7.564 19.911,7.765C19.987,8.022 19.989,39.694 19.913,39.948C19.884,40.044 19.812,40.156 19.752,40.195C19.692,40.234 19.268,40.392 18.810,40.545C18.351,40.698 16.943,41.172 15.680,41.599C14.416,42.025 13.383,42.373 13.383,42.372C13.383,42.370 13.334,42.349 13.274,42.326ZM14.361,41.177C14.777,41.033 15.708,40.718 16.430,40.477C17.845,40.003 18.790,39.680 18.996,39.601L19.125,39.551L19.125,34.122C19.125,31.136 19.109,28.683 19.090,28.672C19.071,28.660 18.823,28.788 18.539,28.956C18.255,29.125 17.802,29.393 17.531,29.552C17.261,29.712 16.723,30.028 16.336,30.256C15.949,30.484 15.563,30.710 15.477,30.758C15.391,30.806 15.113,30.972 14.859,31.125C14.605,31.278 14.322,31.447 14.230,31.499C13.835,31.723 13.746,31.774 13.523,31.909C13.395,31.986 12.920,32.267 12.469,32.532C12.018,32.797 11.443,33.137 11.192,33.288C10.942,33.439 10.728,33.562 10.718,33.562C10.708,33.562 10.455,33.710 10.155,33.891C9.855,34.071 9.583,34.219 9.549,34.219C9.466,34.219 9.124,33.625 9.158,33.538C9.173,33.500 9.204,33.469 9.227,33.469C9.250,33.469 9.519,33.318 9.826,33.134C10.132,32.950 10.446,32.764 10.523,32.719C10.601,32.675 10.980,32.453 11.367,32.225C11.754,31.997 12.345,31.649 12.680,31.452C13.015,31.255 13.532,30.950 13.828,30.775C14.125,30.599 14.462,30.403 14.577,30.338C14.692,30.273 14.977,30.104 15.210,29.962C15.442,29.821 15.701,29.666 15.785,29.618C15.869,29.570 16.006,29.492 16.090,29.444C16.174,29.396 16.538,29.182 16.898,28.968C17.259,28.755 17.681,28.506 17.836,28.416C17.991,28.326 18.344,28.117 18.621,27.951L19.125,27.650L19.125,17.909L19.125,8.168L18.996,8.117C18.925,8.090 18.414,7.919 17.859,7.737C17.305,7.555 16.282,7.220 15.586,6.991C13.722,6.378 13.514,6.317 13.405,6.352C13.351,6.369 12.881,6.631 12.360,6.933C11.840,7.235 11.198,7.605 10.933,7.754C10.669,7.904 10.437,8.050 10.418,8.079C10.398,8.109 10.372,9.567 10.359,11.320L10.336,14.508L9.961,14.508L9.586,14.508L9.562,11.555C9.542,8.962 9.530,8.603 9.469,8.616C9.430,8.625 9.135,8.785 8.812,8.974C8.490,9.162 8.132,9.369 8.016,9.433C7.489,9.725 5.642,10.794 5.590,10.838C5.544,10.876 5.531,11.541 5.531,13.875L5.531,16.864L5.848,17.052C6.022,17.155 6.243,17.284 6.340,17.338C6.651,17.514 6.808,17.605 7.500,18.011C9.253,19.038 9.897,19.406 9.944,19.406C9.990,19.406 10.361,19.152 11.808,18.127C12.055,17.952 12.506,17.637 12.810,17.428C13.113,17.219 13.413,17.000 13.477,16.941L13.593,16.834L13.591,14.714C13.591,13.541 13.609,12.576 13.632,12.553C13.654,12.530 13.829,12.517 14.020,12.525L14.367,12.539L14.379,14.879C14.389,16.799 14.380,17.236 14.327,17.317C14.292,17.371 13.854,17.702 13.354,18.052C12.854,18.403 12.002,19.000 11.461,19.380C10.920,19.759 10.450,20.104 10.418,20.145C10.334,20.254 10.334,22.777 10.418,22.886C10.465,22.946 12.011,23.898 12.703,24.292C12.793,24.344 12.923,24.426 12.992,24.474C13.060,24.523 13.129,24.563 13.145,24.563C13.207,24.563 13.547,24.812 13.547,24.858C13.547,24.943 13.201,25.500 13.148,25.500C13.120,25.500 12.781,25.307 12.396,25.072C12.011,24.837 11.632,24.608 11.555,24.563C11.477,24.519 11.093,24.289 10.700,24.054C10.308,23.818 9.977,23.625 9.964,23.625C9.952,23.625 9.693,23.776 9.389,23.960C9.085,24.145 8.667,24.395 8.461,24.516C8.255,24.637 7.805,24.908 7.461,25.118C7.118,25.328 6.817,25.500 6.792,25.500C6.741,25.500 6.376,24.941 6.375,24.861C6.375,24.815 6.638,24.642 7.178,24.329C7.735,24.008 9.415,22.987 9.480,22.931C9.555,22.867 9.563,22.739 9.563,21.539C9.562,20.339 9.555,20.211 9.480,20.145C9.389,20.064 8.922,19.778 8.531,19.562C8.389,19.483 7.904,19.203 7.453,18.938C7.002,18.673 6.538,18.403 6.422,18.339C6.306,18.274 5.984,18.087 5.706,17.923C5.429,17.759 5.163,17.625 5.116,17.625C5.069,17.625 4.751,17.794 4.409,18.000C4.067,18.206 3.782,18.375 3.775,18.375C3.767,18.375 3.410,18.587 2.981,18.845C2.552,19.104 2.127,19.357 2.038,19.408C1.658,19.623 1.552,19.685 1.207,19.895L0.844,20.116L0.844,23.861L0.844,27.606L1.418,27.947C1.734,28.134 2.034,28.311 2.086,28.339C2.138,28.368 2.496,28.578 2.883,28.806C3.270,29.034 3.871,29.387 4.219,29.590C4.567,29.793 4.872,29.979 4.896,30.003C4.981,30.087 5.135,30.046 5.414,29.866C5.569,29.767 5.896,29.561 6.141,29.408C6.687,29.067 7.064,28.829 8.227,28.090C8.724,27.774 9.160,27.516 9.194,27.516C9.263,27.516 9.609,28.037 9.609,28.141C9.609,28.176 9.441,28.308 9.235,28.435C9.029,28.561 8.696,28.770 8.496,28.898C8.296,29.027 7.932,29.258 7.687,29.410C7.214,29.705 6.716,30.020 6.012,30.470L5.578,30.747L5.578,33.792L5.578,36.837L5.707,36.928C5.778,36.978 6.089,37.166 6.398,37.346C6.708,37.526 7.256,37.848 7.617,38.062C7.978,38.276 8.368,38.504 8.484,38.569C8.600,38.634 8.957,38.843 9.276,39.034C9.596,39.225 9.891,39.384 9.933,39.387C9.974,39.391 10.134,39.312 10.289,39.213C10.444,39.114 10.929,38.807 11.367,38.530C11.805,38.254 12.691,37.695 13.336,37.289C15.020,36.226 15.099,36.179 15.164,36.204C15.197,36.217 15.302,36.357 15.399,36.516C15.570,36.798 15.572,36.808 15.487,36.888C15.412,36.959 14.675,37.429 12.984,38.485C11.448,39.444 10.934,39.773 10.861,39.842C10.771,39.927 10.765,39.922 11.930,40.593C12.007,40.637 12.313,40.819 12.609,40.996C12.906,41.174 13.191,41.344 13.242,41.374C13.412,41.473 13.597,41.440 14.361,41.177Z" fill="#000000"/>
        <path d="M33.606,38.113L33.469,37.976L33.469,36.923C33.469,36.005 33.459,35.866 33.395,35.841C33.354,35.825 30.327,35.812 26.668,35.812L20.016,35.812L20.016,35.488C20.016,35.275 20.036,35.155 20.074,35.137C20.118,35.116 20.115,35.101 20.062,35.074C20.024,35.055 23.019,35.029 26.719,35.016L33.445,34.992L33.469,32.966L33.492,30.940L33.599,30.833C33.696,30.736 33.760,30.725 34.325,30.703L34.945,30.680L34.971,29.742C34.985,29.227 35.019,28.741 35.046,28.664C35.307,27.929 35.881,27.386 36.609,27.183C36.933,27.093 37.662,27.106 37.969,27.207C38.677,27.441 39.182,27.930 39.426,28.621C39.506,28.848 39.529,29.061 39.555,29.789L39.586,30.680L40.195,30.703C40.530,30.716 40.833,30.745 40.868,30.767C41.058,30.890 41.062,30.982 41.062,34.477C41.062,37.363 41.053,37.852 40.992,37.968C40.838,38.266 41.056,38.250 37.228,38.250L33.743,38.250L33.606,38.113ZM40.219,34.477L40.219,31.548L37.324,31.536C35.732,31.529 34.393,31.540 34.348,31.560C34.271,31.595 34.266,31.779 34.266,34.470C34.266,36.051 34.280,37.358 34.297,37.375C34.314,37.392 35.654,37.406 37.273,37.406L40.219,37.406L40.219,34.477ZM36.875,36.062C36.858,36.045 36.844,35.740 36.844,35.383L36.844,34.736L36.662,34.621C36.255,34.364 36.059,33.963 36.108,33.488C36.176,32.825 36.845,32.337 37.475,32.492C37.953,32.609 38.272,32.932 38.370,33.397C38.465,33.849 38.255,34.360 37.876,34.593C37.773,34.657 37.686,34.731 37.685,34.757C37.683,34.783 37.682,35.058 37.683,35.367C37.684,35.677 37.673,35.967 37.660,36.012C37.638,36.081 37.576,36.094 37.270,36.094C37.070,36.094 36.892,36.080 36.875,36.062ZM37.470,33.869C37.786,33.576 37.396,33.106 37.042,33.354C36.886,33.464 36.896,33.758 37.061,33.887C37.222,34.014 37.318,34.010 37.470,33.869ZM38.719,29.868C38.719,28.882 38.676,28.729 38.294,28.354C37.968,28.034 37.719,27.937 37.222,27.938C36.619,27.939 36.161,28.219 35.919,28.734C35.806,28.974 35.796,29.052 35.776,29.824L35.754,30.656L37.236,30.656L38.719,30.656L38.719,29.868ZM26.438,29.169C26.101,29.033 26.052,28.989 26.111,28.879C26.147,28.812 26.777,27.164 27.008,26.531C27.060,26.389 27.120,26.231 27.141,26.180C27.163,26.128 27.352,25.632 27.562,25.078C27.772,24.524 28.005,23.912 28.078,23.719C28.283,23.180 28.958,21.398 29.117,20.977C29.467,20.047 29.456,20.064 29.705,20.167C29.803,20.208 29.951,20.267 30.035,20.298C30.195,20.358 30.215,20.411 30.145,20.588C30.121,20.647 30.060,20.811 30.008,20.953C29.956,21.095 29.720,21.717 29.484,22.336C29.248,22.955 29.016,23.566 28.969,23.695C28.831,24.067 28.122,25.935 28.079,26.039C28.058,26.091 27.998,26.249 27.945,26.391C27.820,26.731 27.097,28.638 27.048,28.758C27.027,28.809 26.983,28.925 26.950,29.016C26.886,29.193 26.818,29.298 26.772,29.295C26.755,29.293 26.605,29.237 26.438,29.169ZM23.781,26.332C23.031,25.578 22.402,24.912 22.384,24.852C22.366,24.792 22.363,24.697 22.377,24.640C22.395,24.568 24.882,22.025 25.288,21.663C25.320,21.635 25.828,22.135 25.828,22.194C25.828,22.225 25.280,22.796 24.609,23.463C23.939,24.130 23.391,24.698 23.391,24.724C23.391,24.751 23.933,25.315 24.596,25.979L25.801,27.184L25.535,27.444C25.389,27.586 25.242,27.703 25.208,27.703C25.174,27.703 24.532,27.086 23.781,26.332ZM30.713,27.456C30.579,27.319 30.469,27.187 30.469,27.162C30.469,27.137 31.017,26.568 31.688,25.898C32.358,25.228 32.906,24.669 32.906,24.655C32.906,24.641 32.365,24.089 31.703,23.428L30.499,22.227L30.788,21.930L31.077,21.633L32.507,23.066C33.816,24.377 33.938,24.512 33.938,24.656C33.938,24.801 33.815,24.937 32.498,26.259C31.706,27.053 31.036,27.703 31.008,27.703C30.980,27.703 30.848,27.592 30.713,27.456ZM37.828,26.379C37.828,26.347 37.822,24.306 37.816,21.844L37.805,17.367L28.910,17.355L20.016,17.344L20.016,16.922L20.016,16.500L28.910,16.488L37.805,16.477L37.817,15.017C37.825,14.135 37.811,13.508 37.783,13.434L37.737,13.312L28.876,13.312L20.016,13.312L20.016,12.891L20.016,12.469L28.858,12.469C35.457,12.469 37.749,12.483 37.893,12.523C38.160,12.599 38.372,12.767 38.497,12.999L38.602,13.195L38.614,19.816L38.626,26.438L38.227,26.438C37.939,26.438 37.828,26.421 37.828,26.379ZM31.354,15.293C31.329,15.109 31.341,14.566 31.371,14.548C31.427,14.513 32.332,14.518 32.389,14.554C32.457,14.596 32.451,15.203 32.381,15.272C32.319,15.334 31.363,15.354 31.354,15.293ZM33.125,15.297C33.082,15.254 33.085,14.532 33.129,14.530C33.504,14.514 34.078,14.526 34.119,14.551C34.175,14.585 34.193,15.124 34.143,15.254C34.120,15.315 34.029,15.328 33.636,15.328C33.372,15.328 33.142,15.314 33.125,15.297ZM34.857,15.256C34.807,15.124 34.825,14.586 34.881,14.551C34.922,14.526 35.483,14.514 35.873,14.530C35.893,14.531 35.904,14.705 35.896,14.918L35.883,15.305L35.385,15.318C34.961,15.329 34.882,15.320 34.857,15.256Z" fill="#7B27FF"/>
    </g>
</svg>
